<mxfile host="app.diagrams.net" modified="2021-01-06T21:10:09.055Z" agent="5.0 (Windows NT 10.0; Win64; x64) AppleWebKit/537.36 (KHTML, like Gecko) Chrome/87.0.4280.88 Safari/537.36" etag="jYDYGFA3kX-DqS9JeRoC" version="14.1.8" type="github">
  <diagram id="jR7uFOy2J7p6zF0rOuKJ" name="Page-1">
    <mxGraphModel dx="1422" dy="794" grid="1" gridSize="10" guides="1" tooltips="1" connect="1" arrows="1" fold="1" page="1" pageScale="1" pageWidth="850" pageHeight="1100" math="0" shadow="0">
      <root>
        <mxCell id="0" />
        <mxCell id="1" parent="0" />
        <mxCell id="nfXb3j_lw96GKdzEQLc_-4" value="User" style="swimlane;fontStyle=0;childLayout=stackLayout;horizontal=1;startSize=26;horizontalStack=0;resizeParent=1;resizeParentMax=0;resizeLast=0;collapsible=1;marginBottom=0;align=center;fontSize=14;" vertex="1" parent="1">
          <mxGeometry x="70" y="200" width="160" height="86" as="geometry" />
        </mxCell>
        <mxCell id="nfXb3j_lw96GKdzEQLc_-5" value="Username - string" style="text;strokeColor=none;fillColor=none;spacingLeft=4;spacingRight=4;overflow=hidden;rotatable=0;points=[[0,0.5],[1,0.5]];portConstraint=eastwest;fontSize=12;" vertex="1" parent="nfXb3j_lw96GKdzEQLc_-4">
          <mxGeometry y="26" width="160" height="30" as="geometry" />
        </mxCell>
        <mxCell id="nfXb3j_lw96GKdzEQLc_-6" value="password - string" style="text;strokeColor=none;fillColor=none;spacingLeft=4;spacingRight=4;overflow=hidden;rotatable=0;points=[[0,0.5],[1,0.5]];portConstraint=eastwest;fontSize=12;" vertex="1" parent="nfXb3j_lw96GKdzEQLc_-4">
          <mxGeometry y="56" width="160" height="30" as="geometry" />
        </mxCell>
        <mxCell id="nfXb3j_lw96GKdzEQLc_-8" value="Woodwork_plans" style="swimlane;fontStyle=0;childLayout=stackLayout;horizontal=1;startSize=26;horizontalStack=0;resizeParent=1;resizeParentMax=0;resizeLast=0;collapsible=1;marginBottom=0;align=center;fontSize=14;" vertex="1" parent="1">
          <mxGeometry x="340" y="350" width="160" height="176" as="geometry" />
        </mxCell>
        <mxCell id="nfXb3j_lw96GKdzEQLc_-17" value="" style="shape=table;startSize=0;container=1;collapsible=1;childLayout=tableLayout;fixedRows=1;rowLines=0;fontStyle=0;align=center;resizeLast=1;strokeColor=none;fillColor=none;" vertex="1" parent="nfXb3j_lw96GKdzEQLc_-8">
          <mxGeometry y="26" width="160" height="30" as="geometry" />
        </mxCell>
        <mxCell id="nfXb3j_lw96GKdzEQLc_-18" value="" style="shape=partialRectangle;collapsible=0;dropTarget=0;pointerEvents=0;fillColor=none;top=0;left=0;bottom=0;right=0;points=[[0,0.5],[1,0.5]];portConstraint=eastwest;" vertex="1" parent="nfXb3j_lw96GKdzEQLc_-17">
          <mxGeometry width="160" height="30" as="geometry" />
        </mxCell>
        <mxCell id="nfXb3j_lw96GKdzEQLc_-19" value="" style="shape=partialRectangle;connectable=0;fillColor=none;top=0;left=0;bottom=0;right=0;editable=1;overflow=hidden;" vertex="1" parent="nfXb3j_lw96GKdzEQLc_-18">
          <mxGeometry width="30" height="30" as="geometry" />
        </mxCell>
        <mxCell id="nfXb3j_lw96GKdzEQLc_-20" value="user_id :integer" style="shape=partialRectangle;connectable=0;fillColor=none;top=0;left=0;bottom=0;right=0;align=left;spacingLeft=6;overflow=hidden;" vertex="1" parent="nfXb3j_lw96GKdzEQLc_-18">
          <mxGeometry x="30" width="130" height="30" as="geometry" />
        </mxCell>
        <mxCell id="nfXb3j_lw96GKdzEQLc_-9" value="title - string" style="text;strokeColor=none;fillColor=none;spacingLeft=4;spacingRight=4;overflow=hidden;rotatable=0;points=[[0,0.5],[1,0.5]];portConstraint=eastwest;fontSize=12;" vertex="1" parent="nfXb3j_lw96GKdzEQLc_-8">
          <mxGeometry y="56" width="160" height="30" as="geometry" />
        </mxCell>
        <mxCell id="nfXb3j_lw96GKdzEQLc_-10" value="Intructions - text" style="text;strokeColor=none;fillColor=none;spacingLeft=4;spacingRight=4;overflow=hidden;rotatable=0;points=[[0,0.5],[1,0.5]];portConstraint=eastwest;fontSize=12;" vertex="1" parent="nfXb3j_lw96GKdzEQLc_-8">
          <mxGeometry y="86" width="160" height="30" as="geometry" />
        </mxCell>
        <mxCell id="nfXb3j_lw96GKdzEQLc_-11" value="Materials needed - string&#xa;" style="text;strokeColor=none;fillColor=none;spacingLeft=4;spacingRight=4;overflow=hidden;rotatable=0;points=[[0,0.5],[1,0.5]];portConstraint=eastwest;fontSize=12;" vertex="1" parent="nfXb3j_lw96GKdzEQLc_-8">
          <mxGeometry y="116" width="160" height="30" as="geometry" />
        </mxCell>
        <mxCell id="nfXb3j_lw96GKdzEQLc_-21" value="image - string" style="text;strokeColor=none;fillColor=none;spacingLeft=4;spacingRight=4;overflow=hidden;rotatable=0;points=[[0,0.5],[1,0.5]];portConstraint=eastwest;fontSize=12;" vertex="1" parent="nfXb3j_lw96GKdzEQLc_-8">
          <mxGeometry y="146" width="160" height="30" as="geometry" />
        </mxCell>
        <mxCell id="nfXb3j_lw96GKdzEQLc_-12" value="Materials" style="swimlane;fontStyle=0;childLayout=stackLayout;horizontal=1;startSize=26;horizontalStack=0;resizeParent=1;resizeParentMax=0;resizeLast=0;collapsible=1;marginBottom=0;align=center;fontSize=14;" vertex="1" parent="1">
          <mxGeometry x="470" y="160" width="160" height="86" as="geometry" />
        </mxCell>
        <mxCell id="nfXb3j_lw96GKdzEQLc_-13" value="name - string" style="text;spacingLeft=4;spacingRight=4;overflow=hidden;rotatable=0;points=[[0,0.5],[1,0.5]];portConstraint=eastwest;fontSize=12;" vertex="1" parent="nfXb3j_lw96GKdzEQLc_-12">
          <mxGeometry y="26" width="160" height="30" as="geometry" />
        </mxCell>
        <mxCell id="nfXb3j_lw96GKdzEQLc_-14" value="image - string" style="text;spacingLeft=4;spacingRight=4;overflow=hidden;rotatable=0;points=[[0,0.5],[1,0.5]];portConstraint=eastwest;fontSize=12;" vertex="1" parent="nfXb3j_lw96GKdzEQLc_-12">
          <mxGeometry y="56" width="160" height="30" as="geometry" />
        </mxCell>
        <mxCell id="nfXb3j_lw96GKdzEQLc_-16" value="" style="edgeStyle=entityRelationEdgeStyle;fontSize=12;html=1;endArrow=ERoneToMany;exitX=1;exitY=0.5;exitDx=0;exitDy=0;entryX=-0.019;entryY=0.078;entryDx=0;entryDy=0;entryPerimeter=0;" edge="1" parent="1" source="nfXb3j_lw96GKdzEQLc_-5" target="nfXb3j_lw96GKdzEQLc_-8">
          <mxGeometry width="100" height="100" relative="1" as="geometry">
            <mxPoint x="250" y="286" as="sourcePoint" />
            <mxPoint x="350" y="186" as="targetPoint" />
          </mxGeometry>
        </mxCell>
        <mxCell id="nfXb3j_lw96GKdzEQLc_-29" value="Woodwork_materials" style="swimlane;fontStyle=0;childLayout=stackLayout;horizontal=1;startSize=26;horizontalStack=0;resizeParent=1;resizeParentMax=0;resizeLast=0;collapsible=1;marginBottom=0;align=center;fontSize=14;" vertex="1" parent="1">
          <mxGeometry x="600" y="366" width="160" height="86" as="geometry" />
        </mxCell>
        <mxCell id="nfXb3j_lw96GKdzEQLc_-30" value="woodwork_plan_id - integer" style="text;strokeColor=none;fillColor=none;spacingLeft=4;spacingRight=4;overflow=hidden;rotatable=0;points=[[0,0.5],[1,0.5]];portConstraint=eastwest;fontSize=12;" vertex="1" parent="nfXb3j_lw96GKdzEQLc_-29">
          <mxGeometry y="26" width="160" height="30" as="geometry" />
        </mxCell>
        <mxCell id="nfXb3j_lw96GKdzEQLc_-31" value="material_id - integer" style="text;strokeColor=none;fillColor=none;spacingLeft=4;spacingRight=4;overflow=hidden;rotatable=0;points=[[0,0.5],[1,0.5]];portConstraint=eastwest;fontSize=12;" vertex="1" parent="nfXb3j_lw96GKdzEQLc_-29">
          <mxGeometry y="56" width="160" height="30" as="geometry" />
        </mxCell>
        <mxCell id="nfXb3j_lw96GKdzEQLc_-33" value="" style="edgeStyle=entityRelationEdgeStyle;fontSize=12;html=1;endArrow=ERoneToMany;exitX=0.994;exitY=0.085;exitDx=0;exitDy=0;exitPerimeter=0;entryX=0;entryY=0.25;entryDx=0;entryDy=0;" edge="1" parent="1" source="nfXb3j_lw96GKdzEQLc_-8" target="nfXb3j_lw96GKdzEQLc_-29">
          <mxGeometry width="100" height="100" relative="1" as="geometry">
            <mxPoint x="480" y="286" as="sourcePoint" />
            <mxPoint x="580" y="186" as="targetPoint" />
          </mxGeometry>
        </mxCell>
        <mxCell id="nfXb3j_lw96GKdzEQLc_-34" value="" style="edgeStyle=entityRelationEdgeStyle;fontSize=12;html=1;endArrow=ERoneToMany;exitX=1.013;exitY=0.167;exitDx=0;exitDy=0;exitPerimeter=0;" edge="1" parent="1" source="nfXb3j_lw96GKdzEQLc_-13" target="nfXb3j_lw96GKdzEQLc_-29">
          <mxGeometry width="100" height="100" relative="1" as="geometry">
            <mxPoint x="740" y="220" as="sourcePoint" />
            <mxPoint x="840" y="120" as="targetPoint" />
          </mxGeometry>
        </mxCell>
      </root>
    </mxGraphModel>
  </diagram>
</mxfile>
